<svg width="24" height="24" viewBox="0 0 24 24" fill="none" xmlns="http://www.w3.org/2000/svg">
    <path
        d="M21.0816 8.5632L19.5648 4.3968C19.4688 4.1088 19.1808 3.9168 18.8736 3.9168H5.1456C4.8384 3.9168 4.5696 4.1088 4.4544 4.3968L2.9376 8.5632C2.7648 9.0432 3.1104 9.5424 3.6288 9.5424H4.2624V19.7184C4.2624 19.9296 4.4352 20.0832 4.6272 20.0832H19.4112C19.6032 20.0832 19.776 19.9104 19.776 19.7184V9.5424H20.4096C20.8896 9.5424 21.2544 9.0432 21.0816 8.5632ZM12.8448 15.0144H5.5296V9.5616H12.8448V15.0144ZM18.4704 18.7968H14.1312V9.5616H18.4704V18.7968Z"
        fill="#86C1AB" />
    <path
        d="M6.6816 13.7856C6.7584 13.8432 6.8352 13.8624 6.912 13.8624C7.0272 13.8624 7.1424 13.8048 7.2192 13.7088L9.0816 11.2896C9.216 11.1168 9.1776 10.8864 9.0048 10.752C8.832 10.6176 8.6016 10.656 8.4672 10.8288L6.6048 13.248C6.4704 13.4208 6.5088 13.6512 6.6816 13.7856V13.7856Z"
        fill="#86C1AB" />
    <path
        d="M9.0624 13.7856C9.1392 13.8432 9.216 13.8624 9.2928 13.8624C9.408 13.8624 9.5232 13.8048 9.6 13.7088L11.4624 11.2896C11.5968 11.1168 11.5584 10.8864 11.3856 10.752C11.2128 10.6176 10.9824 10.656 10.848 10.8288L8.9856 13.248C8.8512 13.4208 8.8896 13.6512 9.0624 13.7856V13.7856Z"
        fill="#86C1AB" />
</svg>